ffmpeg started on 2016-12-06 at 14:31:38
Report written to "Output/x264/results/ffmpeg/crowd_run_2160p50medium1000k.log"
Command line:
Tools/ffmpeg/ffmpeg -benchmark -y -i Input/y4m/crowd_run_2160p50.y4m -c:v libx264 -preset medium -b:v 1000k -an Output/x264/encoded/crowd_run_2160p50medium1000k.mkv
ffmpeg version N-82227-gdb23fde Copyright (c) 2000-2016 the FFmpeg developers
  built with gcc 5.4.0 (Ubuntu 5.4.0-6ubuntu1~16.04.2) 20160609
  configuration: --prefix=/home/jaroslav/ffmpeg_build --pkg-config-flags=--static --extra-cflags=-I/home/jaroslav/ffmpeg_build/include --extra-ldflags=-L/home/jaroslav/ffmpeg_build/lib --bindir=/home/jaroslav/bin --enable-gpl --enable-libass --enable-libfdk-aac --enable-libfreetype --enable-libmp3lame --enable-libopus --enable-libtheora --enable-libvorbis --enable-libvpx --enable-libx264 --enable-libx265 --enable-nvenc --enable-libmfx --enable-libxvid --enable-libgsm --enable-libopencore-amrnb --enable-version3 --enable-nonfree
  libavutil      55. 35.100 / 55. 35.100
  libavcodec     57. 66.101 / 57. 66.101
  libavformat    57. 57.100 / 57. 57.100
  libavdevice    57.  2.100 / 57.  2.100
  libavfilter     6. 66.100 /  6. 66.100
  libswscale      4.  3.100 /  4.  3.100
  libswresample   2.  4.100 /  2.  4.100
  libpostproc    54.  2.100 / 54.  2.100
Input #0, yuv4mpegpipe, from 'Input/y4m/crowd_run_2160p50.y4m':
  Duration: 00:00:10.00, start: 0.000000, bitrate: 4976642 kb/s
    Stream #0:0: Video: rawvideo (I420 / 0x30323449), yuv420p(progressive), 3840x2160, SAR 1:1 DAR 16:9, 50 fps, 50 tbr, 50 tbn, 50 tbc
[libx264 @ 0x37f71c0] using SAR=1/1
[libx264 @ 0x37f71c0] using cpu capabilities: MMX2 SSE2Fast SSSE3 SSE4.2 AVX FMA3 AVX2 LZCNT BMI2
[libx264 @ 0x37f71c0] profile High, level 5.2
[libx264 @ 0x37f71c0] 264 - core 148 - H.264/MPEG-4 AVC codec - Copyleft 2003-2016 - http://www.videolan.org/x264.html - options: cabac=1 ref=3 deblock=1:0:0 analyse=0x3:0x113 me=hex subme=7 psy=1 psy_rd=1.00:0.00 mixed_ref=1 me_range=16 chroma_me=1 trellis=1 8x8dct=1 cqm=0 deadzone=21,11 fast_pskip=1 chroma_qp_offset=-2 threads=6 lookahead_threads=1 sliced_threads=0 nr=0 decimate=1 interlaced=0 bluray_compat=0 constrained_intra=0 bframes=3 b_pyramid=2 b_adapt=1 b_bias=0 direct=1 weightb=1 open_gop=0 weightp=2 keyint=250 keyint_min=25 scenecut=40 intra_refresh=0 rc_lookahead=40 rc=abr mbtree=1 bitrate=1000 ratetol=1.0 qcomp=0.60 qpmin=0 qpmax=69 qpstep=4 ip_ratio=1.40 aq=1:1.00
Output #0, matroska, to 'Output/x264/encoded/crowd_run_2160p50medium1000k.mkv':
  Metadata:
    encoder         : Lavf57.57.100
    Stream #0:0: Video: h264 (libx264) (H264 / 0x34363248), yuv420p, 3840x2160 [SAR 1:1 DAR 16:9], q=-1--1, 1000 kb/s, 50 fps, 1k tbn, 50 tbc
    Metadata:
      encoder         : Lavc57.66.101 libx264
    Side data:
      cpb: bitrate max/min/avg: 0/0/1000000 buffer size: 0 vbv_delay: -1
Stream mapping:
  Stream #0:0 -> #0:0 (rawvideo (native) -> h264 (libx264))
Press [q] to stop, [?] for help
frame=    6 fps=0.0 q=0.0 size=       0kB time=00:00:00.00 bitrate=N/A speed=   0x    frame=   23 fps= 22 q=0.0 size=       0kB time=00:00:00.00 bitrate=N/A speed=   0x    frame=   32 fps= 21 q=0.0 size=       0kB time=00:00:00.00 bitrate=N/A speed=   0x    frame=   40 fps= 19 q=0.0 size=       0kB time=00:00:00.00 bitrate=N/A speed=   0x    frame=   47 fps= 10 q=0.0 size=       0kB time=00:00:00.00 bitrate=N/A speed=   0x    frame=   55 fps= 11 q=63.0 size=       1kB time=00:00:00.04 bitrate= 143.2kbits/s speed=0.00799x    frame=   60 fps= 11 q=66.0 size=       1kB time=00:00:00.14 bitrate=  41.6kbits/s speed=0.025x    frame=   68 fps= 11 q=69.0 size=       1kB time=00:00:00.30 bitrate=  19.5kbits/s speed=0.0485x    frame=   76 fps= 11 q=69.0 size=       1kB time=00:00:00.46 bitrate=  12.7kbits/s speed=0.0687x    frame=   84 fps= 12 q=69.0 size=       1kB time=00:00:00.62 bitrate=   9.5kbits/s speed=0.086x    frame=   92 fps= 12 q=69.0 size=       1kB time=00:00:00.78 bitrate=   7.5kbits/s speed=0.101x    frame=  100 fps= 12 q=69.0 size=       1kB time=00:00:00.94 bitrate=   6.2kbits/s speed=0.114x    frame=  108 fps= 12 q=69.0 size=       1kB time=00:00:01.10 bitrate=   5.3kbits/s speed=0.126x    frame=  113 fps= 12 q=69.0 size=       1kB time=00:00:01.20 bitrate=   4.9kbits/s speed=0.128x    frame=  119 fps= 12 q=69.0 size=       1kB time=00:00:01.32 bitrate=   4.4kbits/s speed=0.133x    frame=  128 fps= 12 q=69.0 size=       1kB time=00:00:01.50 bitrate=   3.9kbits/s speed=0.144x    frame=  137 fps= 13 q=69.0 size=       1kB time=00:00:01.68 bitrate=   3.5kbits/s speed=0.153x    frame=  145 fps= 13 q=69.0 size=       1kB time=00:00:01.84 bitrate=   3.2kbits/s speed=0.161x    frame=  150 fps= 12 q=69.0 size=       1kB time=00:00:01.94 bitrate=   3.0kbits/s speed=0.161x    frame=  158 fps= 12 q=69.0 size=       1kB time=00:00:02.10 bitrate=   2.8kbits/s speed=0.164x    frame=  163 fps= 12 q=69.0 size=       1kB time=00:00:02.20 bitrate=   2.7kbits/s speed=0.165x    frame=  165 fps= 11 q=69.0 size=       1kB time=00:00:02.24 bitrate=   2.6kbits/s speed=0.156x    frame=  176 fps= 12 q=69.0 size=       1kB time=00:00:02.46 bitrate=   2.4kbits/s speed=0.164x    frame=  183 fps= 12 q=69.0 size=       1kB time=00:00:02.60 bitrate=   2.3kbits/s speed=0.167x    frame=  192 fps= 12 q=69.0 size=       1kB time=00:00:02.78 bitrate=   2.1kbits/s speed=0.172x    frame=  197 fps= 12 q=69.0 size=       1kB time=00:00:02.88 bitrate=   2.0kbits/s speed=0.171x    frame=  204 fps= 12 q=69.0 size=       1kB time=00:00:03.02 bitrate=   1.9kbits/s speed=0.172x    frame=  209 fps= 11 q=69.0 size=       1kB time=00:00:03.12 bitrate=   1.9kbits/s speed=0.171x    frame=  220 fps= 12 q=69.0 size=       1kB time=00:00:03.34 bitrate=   1.8kbits/s speed=0.178x    frame=  225 fps= 12 q=69.0 size=       1kB time=00:00:03.44 bitrate=   1.7kbits/s speed=0.178x    frame=  233 fps= 12 q=69.0 size=       1kB time=00:00:03.60 bitrate=   1.6kbits/s speed=0.182x    frame=  239 fps= 12 q=69.0 size=       1kB time=00:00:03.72 bitrate=   1.6kbits/s speed=0.183x    frame=  243 fps= 11 q=69.0 size=       1kB time=00:00:03.80 bitrate=   1.5kbits/s speed=0.18x    frame=  252 fps= 11 q=69.0 size=       1kB time=00:00:03.98 bitrate=   1.5kbits/s speed=0.182x    frame=  260 fps= 12 q=69.0 size=       1kB time=00:00:04.14 bitrate=   1.4kbits/s speed=0.185x    frame=  263 fps= 11 q=69.0 size=       1kB time=00:00:04.20 bitrate=   1.4kbits/s speed=0.18x    frame=  270 fps= 11 q=69.0 size=       1kB time=00:00:04.34 bitrate=   1.4kbits/s speed=0.179x    frame=  275 fps= 11 q=69.0 size=       1kB time=00:00:04.44 bitrate=   1.3kbits/s speed=0.179x    frame=  280 fps= 11 q=69.0 size=       1kB time=00:00:04.54 bitrate=   1.3kbits/s speed=0.179x    frame=  289 fps= 11 q=68.0 size=       1kB time=00:00:04.72 bitrate=   1.2kbits/s speed=0.182x    frame=  295 fps= 11 q=68.0 size=       1kB time=00:00:04.84 bitrate=   1.2kbits/s speed=0.182x    frame=  296 fps= 11 q=66.0 size=       1kB time=00:00:04.86 bitrate=   1.2kbits/s speed=0.177x    frame=  306 fps= 11 q=68.0 size=     646kB time=00:00:05.06 bitrate=1045.5kbits/s speed=0.181x    frame=  314 fps= 11 q=68.0 size=     646kB time=00:00:05.22 bitrate=1013.4kbits/s speed=0.183x    frame=  320 fps= 11 q=68.0 size=     646kB time=00:00:05.34 bitrate= 990.7kbits/s speed=0.183x    frame=  330 fps= 11 q=68.0 size=     646kB time=00:00:05.54 bitrate= 954.9kbits/s speed=0.186x    frame=  336 fps= 11 q=68.0 size=     646kB time=00:00:05.66 bitrate= 934.7kbits/s speed=0.186x    frame=  339 fps= 11 q=68.0 size=     646kB time=00:00:05.72 bitrate= 924.9kbits/s speed=0.184x    frame=  345 fps= 11 q=67.0 size=     646kB time=00:00:05.84 bitrate= 905.9kbits/s speed=0.184x    frame=  346 fps= 11 q=67.0 size=     646kB time=00:00:05.86 bitrate= 902.8kbits/s speed=0.182x    frame=  349 fps= 11 q=67.0 size=     646kB time=00:00:05.92 bitrate= 893.6kbits/s speed=0.18x    frame=  356 fps= 11 q=67.0 size=     646kB time=00:00:06.06 bitrate= 873.0kbits/s speed=0.181x    frame=  358 fps= 10 q=67.0 size=     646kB time=00:00:06.10 bitrate= 867.2kbits/s speed=0.179x    frame=  366 fps= 11 q=67.0 size=     646kB time=00:00:06.26 bitrate= 845.1kbits/s speed=0.181x    frame=  374 fps= 11 q=67.0 size=     646kB time=00:00:06.42 bitrate= 824.0kbits/s speed=0.183x    frame=  383 fps= 11 q=67.0 size=     646kB time=00:00:06.60 bitrate= 801.6kbits/s speed=0.185x    frame=  391 fps= 11 q=66.0 size=     646kB time=00:00:06.76 bitrate= 782.6kbits/s speed=0.187x    frame=  399 fps= 11 q=66.0 size=     646kB time=00:00:06.92 bitrate= 764.5kbits/s speed=0.189x    frame=  407 fps= 11 q=66.0 size=     646kB time=00:00:07.08 bitrate= 747.2kbits/s speed=0.19x    frame=  414 fps= 11 q=66.0 size=     646kB time=00:00:07.22 bitrate= 732.7kbits/s speed=0.191x    frame=  422 fps= 11 q=66.0 size=     646kB time=00:00:07.38 bitrate= 716.9kbits/s speed=0.193x    frame=  430 fps= 11 q=66.0 size=     646kB time=00:00:07.54 bitrate= 701.6kbits/s speed=0.195x    frame=  438 fps= 11 q=66.0 size=     646kB time=00:00:07.70 bitrate= 687.1kbits/s speed=0.196x    frame=  446 fps= 11 q=66.0 size=     646kB time=00:00:07.86 bitrate= 673.1kbits/s speed=0.198x    frame=  454 fps= 11 q=66.0 size=     646kB time=00:00:08.02 bitrate= 659.7kbits/s speed=0.199x    frame=  462 fps= 11 q=66.0 size=     646kB time=00:00:08.18 bitrate= 646.8kbits/s speed= 0.2x    frame=  470 fps= 11 q=66.0 size=     646kB time=00:00:08.34 bitrate= 634.3kbits/s speed=0.202x    frame=  478 fps= 11 q=66.0 size=     646kB time=00:00:08.50 bitrate= 622.4kbits/s speed=0.203x    frame=  486 fps= 11 q=66.0 size=     646kB time=00:00:08.66 bitrate= 610.9kbits/s speed=0.204x    frame=  493 fps= 11 q=66.0 size=     646kB time=00:00:08.80 bitrate= 601.2kbits/s speed=0.205x    frame=  499 fps= 11 q=66.0 size=     646kB time=00:00:08.92 bitrate= 593.1kbits/s speed=0.205x    frame=  500 fps= 11 q=-1.0 Lsize=    1164kB time=00:00:09.94 bitrate= 959.2kbits/s speed=0.217x    
video:1160kB audio:0kB subtitle:0kB other streams:0kB global headers:0kB muxing overhead: 0.364023%
bench: utime=93.548s
bench: maxrss=1820104kB
[libx264 @ 0x37f71c0] frame I:2     Avg QP:50.19  size: 32286
[libx264 @ 0x37f71c0] frame P:126   Avg QP:51.00  size:  7541
[libx264 @ 0x37f71c0] frame B:372   Avg QP:51.00  size:   463
[libx264 @ 0x37f71c0] consecutive B-frames:  0.8%  0.0%  0.0% 99.2%
[libx264 @ 0x37f71c0] mb I  I16..4: 63.6% 36.2%  0.1%
[libx264 @ 0x37f71c0] mb P  I16..4: 14.9%  0.5%  0.0%  P16..4:  6.0%  0.2%  3.4%  0.0%  0.0%    skip:74.9%
[libx264 @ 0x37f71c0] mb B  I16..4:  0.0%  0.0%  0.0%  B16..8:  1.0%  0.0%  0.0%  direct: 0.0%  skip:99.0%  L0:16.6% L1:83.4% BI: 0.0%
[libx264 @ 0x37f71c0] final ratefactor: 58.59
[libx264 @ 0x37f71c0] 8x8 transform intra:6.6% inter:99.4%
[libx264 @ 0x37f71c0] coded y,uvDC,uvAC intra: 0.8% 2.8% 0.3% inter: 0.0% 0.0% 0.0%
[libx264 @ 0x37f71c0] i16 v,h,dc,p: 87% 11%  2%  0%
[libx264 @ 0x37f71c0] i8 v,h,dc,ddl,ddr,vr,hd,vl,hu: 21%  8% 53%  5%  2%  2%  3%  3%  3%
[libx264 @ 0x37f71c0] i4 v,h,dc,ddl,ddr,vr,hd,vl,hu: 28% 18% 21% 10%  7%  5%  5%  3%  3%
[libx264 @ 0x37f71c0] i8c dc,h,v,p: 100%  0%  0%  0%
[libx264 @ 0x37f71c0] Weighted P-Frames: Y:1.6% UV:0.8%
[libx264 @ 0x37f71c0] ref P L0: 74.8%  0.5% 13.0% 11.4%  0.2%
[libx264 @ 0x37f71c0] ref B L0: 95.5%  3.4%  1.1%
[libx264 @ 0x37f71c0] ref B L1: 96.4%  3.6%
[libx264 @ 0x37f71c0] kb/s:949.50
